<svg width="43" height="20" viewBox="0 0 43 20" fill="none" xmlns="http://www.w3.org/2000/svg">
<path fill-rule="evenodd" clip-rule="evenodd" d="M0.485494 0.113895L0.475163 0.115896L0.40849 0.150896L0.389709 0.154895L0.376563 0.150896L0.309889 0.115896C0.299873 0.112563 0.29236 0.114228 0.287352 0.120895L0.283596 0.130895L0.267632 0.558895L0.272327 0.578895L0.281718 0.591896L0.379379 0.665895L0.393465 0.669895L0.404734 0.665895L0.502396 0.591896L0.513665 0.575895L0.517421 0.558895L0.501457 0.131895C0.498953 0.121228 0.493632 0.115228 0.485494 0.113895ZM0.734344 0.000896151L0.722136 0.00289505L0.54841 0.0958955L0.539019 0.105896L0.536203 0.116895L0.553105 0.546896L0.557801 0.558895L0.565314 0.565895L0.754064 0.658895C0.765959 0.662229 0.775036 0.659562 0.781297 0.650896L0.785053 0.636896L0.753125 0.0228955C0.749995 0.0108955 0.743734 0.00356282 0.734344 0.000896151ZM0.0629164 0.00289505C0.0587782 0.0002244 0.0538323 -0.000641274 0.0491087 0.000476535C0.0443851 0.00159434 0.0402489 0.00460989 0.0375623 0.00889557L0.0319275 0.0228955L0 0.636896C0.000626039 0.648896 0.00594756 0.656896 0.0159642 0.660896L0.0300495 0.658895L0.218801 0.565895L0.228191 0.557895L0.231947 0.546896L0.247911 0.116895L0.245094 0.104896L0.235703 0.094896L0.0629164 0.00289505Z" fill="black"/>
<path fill-rule="evenodd" clip-rule="evenodd" d="M30.1401 13.6849C33.7508 17.5299 37.0967 17.9509 38.0789 17.9899C39.2659 18.0359 40.4773 17.0039 41.0013 15.9469C40.1655 14.9029 39.0772 14.0929 37.8855 13.2149C37.1821 13.9629 36.3154 15.3529 35.1613 14.8549C34.5049 14.5739 32.8841 13.7789 31.468 12.2699C30.0519 10.7609 29.3053 9.03593 29.0396 8.33793C28.5719 7.10693 29.881 6.18193 30.5843 5.43293C29.7598 4.14293 29.0123 2.95393 28.0338 2.10893C27.0272 2.66893 26.0524 3.94893 26.0966 5.22993C26.1332 6.27593 26.5285 9.83893 30.1401 13.6849ZM38.0095 19.9889C36.6572 19.9359 32.8249 19.3719 28.8114 15.0989C24.7988 10.8249 24.2701 6.74493 24.2194 5.30393C24.1442 3.10793 25.7237 0.974928 27.5483 0.141928C27.7681 0.0408954 28.0087 0.00242899 28.2466 0.030304C28.4844 0.058179 28.7114 0.151438 28.9053 0.300928C30.4153 1.47393 31.4567 3.25093 32.3516 4.64293C32.5378 4.93238 32.6231 5.28203 32.5927 5.63137C32.5624 5.98071 32.4183 6.30777 32.1854 6.55593L30.912 7.91293C31.2078 8.60793 31.8098 9.80593 32.7958 10.8559C33.7818 11.9059 34.9068 12.5469 35.5604 12.8619L36.8328 11.5059C37.0665 11.2569 37.3749 11.1033 37.7042 11.072C38.0335 11.0408 38.3626 11.1338 38.6339 11.3349C39.9674 12.3189 41.5337 13.4119 42.6756 14.9689C42.8274 15.1768 42.924 15.4243 42.9552 15.6856C42.9864 15.9468 42.9512 16.2122 42.8531 16.4539C42.0671 18.4069 40.0782 20.0699 38.0095 19.9889Z" fill="black"/>
</svg>
