<svg width="24" height="156" viewBox="0 0 24 156" fill="none" xmlns="http://www.w3.org/2000/svg">
<path d="M21 6.99997L9 19L3.5 13.5L4.91 12.09L9 16.17L19.59 5.58997L21 6.99997Z" fill="#E6E6E6"/>
<path d="M21 51L9 63L3.5 57.5L4.91 56.09L9 60.17L19.59 49.59L21 51Z" fill="#E6E6E6"/>
<path d="M21 95L9 107L3.5 101.5L4.91 100.09L9 104.17L19.59 93.59L21 95Z" fill="#E6E6E6"/>
<path d="M21 95L9 107L3.5 101.5L4.91 100.09L9 104.17L19.59 93.59L21 95Z" fill="#E6E6E6"/>
<path d="M21 139L9 151L3.5 145.5L4.91 144.09L9 148.17L19.59 137.59L21 139Z" fill="#E6E6E6"/>
</svg>
