<svg width="26" height="26" viewBox="0 0 26 26" fill="none" xmlns="http://www.w3.org/2000/svg">
<path d="M12.9999 18.4167C11.5013 18.4167 10.2241 17.8884 9.16817 16.8318C8.11228 15.7752 7.58397 14.4979 7.58325 13C7.58253 11.5022 8.11084 10.2249 9.16817 9.16829C10.2255 8.11168 11.5028 7.58337 12.9999 7.58337C14.4971 7.58337 15.7747 8.11168 16.8328 9.16829C17.8908 10.2249 18.4188 11.5022 18.4166 13C18.4144 14.4979 17.8861 15.7755 16.8317 16.8329C15.7772 17.8902 14.5 18.4182 12.9999 18.4167ZM5.41658 14.0834H1.08325V11.9167H5.41658V14.0834ZM24.9166 14.0834H20.5833V11.9167H24.9166V14.0834ZM11.9166 5.41671V1.08337H14.0833V5.41671H11.9166ZM11.9166 24.9167V20.5834H14.0833V24.9167H11.9166ZM6.93325 8.39587L4.19784 5.76879L5.74159 4.17087L8.34158 6.87921L6.93325 8.39587ZM20.2583 21.8292L17.6312 19.0938L19.0666 17.6042L21.802 20.2313L20.2583 21.8292ZM17.6041 6.93337L20.2312 4.19796L21.8291 5.74171L19.1208 8.34171L17.6041 6.93337ZM4.17075 20.2584L6.90617 17.6313L8.39575 19.0667L5.76867 21.8021L4.17075 20.2584Z" fill="#E6E6E6"/>
</svg>
