<svg width="43" height="43" viewBox="0 0 43 43" fill="none" xmlns="http://www.w3.org/2000/svg">
<path d="M33.7621 24.157C35.9265 23.082 35.9265 19.9161 33.7621 18.8429L11.739 7.91192C9.5388 6.81901 7.33505 8.79522 7.64501 10.9936L8.61251 17.8539C8.68738 18.4048 8.91703 18.9232 9.27477 19.3488C9.63251 19.7744 10.1037 20.0898 10.6335 20.2583C10.9202 20.3479 11.6189 20.4966 12.4467 20.665C13.5862 20.8979 20.3121 21.4999 20.3121 21.4999C20.3121 21.4999 13.5862 22.1037 12.4467 22.3348C11.6207 22.5033 10.922 22.652 10.6335 22.7415C10.1037 22.9101 9.63251 23.2254 9.27477 23.6511C8.91703 24.0767 8.68738 24.595 8.61251 25.146L7.64501 32.008C7.33505 34.2046 9.5388 36.1808 11.739 35.0897L33.7621 24.157Z" fill="black"/>
</svg>
